<svg width="16" height="16" viewBox="0 0 16 16" fill="none" xmlns="http://www.w3.org/2000/svg">
<path d="M15 9V12.5C15 12.776 14.776 13 14.5 13C14.224 13 14 12.776 14 12.5V12H2V12.5C2 12.776 1.776 13 1.5 13C1.224 13 1 12.776 1 12.5V9C1 8.173 1.673 7.5 2.5 7.5H13.5C14.327 7.5 15 8.173 15 9Z" fill="#020000"/>
<path d="M2.5 6.5V3.5C2.5 3.224 2.724 3 3 3H13C13.276 3 13.5 3.224 13.5 3.5V6.5H12V6C12 5.4485 11.5515 5 11 5H9.5C8.9485 5 8.5 5.4485 8.5 6V6.5H7.5V6C7.5 5.4485 7.0515 5 6.5 5H5C4.4485 5 4 5.4485 4 6V6.5H2.5Z" fill="#020000"/>
</svg>
