<svg width="114" height="24" viewBox="0 0 114 24" fill="none" xmlns="http://www.w3.org/2000/svg">
<g clip-path="url(#clip0_37_736)">
<path d="M25.9975 9.17179H16.0709L13.0047 -0.000244141L9.92904 9.17179L0.00244141 9.16265L8.04154 14.8369L4.96558 23.9998L13.0047 18.3347L21.034 23.9998L17.9678 14.8369L25.9975 9.17179Z" fill="#84ED00"/>
<path d="M18.658 16.9114L17.968 14.8369L13.0049 18.3347L18.658 16.9114Z" fill="#D0FF71"/>
</g>
<path d="M34.864 5.39576H43.63V7.41175H40.246V18.4998H38.158V7.41175H34.864V5.39576ZM46.6259 10.8858L46.8059 13.0458L46.7339 12.7398C46.9499 12.2838 47.2439 11.8938 47.6159 11.5698C47.9999 11.2338 48.3899 10.9818 48.7859 10.8138C49.1819 10.6338 49.5059 10.5438 49.7579 10.5438L49.6679 12.5598C49.0919 12.5118 48.5879 12.6198 48.1559 12.8838C47.7359 13.1358 47.4059 13.4718 47.1659 13.8918C46.9379 14.3118 46.8239 14.7558 46.8239 15.2238V18.4998H44.8079V10.8858H46.6259ZM54.2695 18.8238C53.5735 18.8238 52.9975 18.6138 52.5415 18.1938C52.0855 17.7618 51.8455 17.2098 51.8215 16.5378V10.8858H53.8375V15.8178C53.8615 16.1898 53.9695 16.4958 54.1615 16.7358C54.3535 16.9758 54.6595 17.0958 55.0795 17.0958C55.4755 17.0958 55.8295 16.9758 56.1415 16.7358C56.4535 16.4838 56.6935 16.1418 56.8615 15.7098C57.0415 15.2778 57.1315 14.7918 57.1315 14.2518V10.8858H59.1475V18.4998H57.3295L57.1675 16.8258L57.2215 17.0958C57.0655 17.4198 56.8435 17.7198 56.5555 17.9958C56.2675 18.2598 55.9255 18.4638 55.5295 18.6078C55.1455 18.7518 54.7255 18.8238 54.2695 18.8238ZM64.215 18.6618C63.639 18.6618 63.087 18.5598 62.559 18.3558C62.043 18.1518 61.605 17.8518 61.245 17.4558L62.109 16.3218C62.445 16.6458 62.775 16.8858 63.099 17.0418C63.435 17.1858 63.753 17.2578 64.053 17.2578C64.281 17.2578 64.485 17.2338 64.665 17.1858C64.857 17.1258 65.007 17.0358 65.115 16.9158C65.235 16.7958 65.295 16.6338 65.295 16.4298C65.295 16.1898 65.211 16.0038 65.043 15.8718C64.875 15.7278 64.659 15.6138 64.395 15.5298C64.131 15.4338 63.855 15.3438 63.567 15.2598C62.907 15.0558 62.415 14.7558 62.091 14.3598C61.767 13.9638 61.605 13.5078 61.605 12.9918C61.605 12.5958 61.707 12.2178 61.911 11.8578C62.115 11.4858 62.427 11.1798 62.847 10.9398C63.267 10.6998 63.795 10.5798 64.431 10.5798C65.007 10.5798 65.505 10.6458 65.925 10.7778C66.357 10.8978 66.759 11.1078 67.131 11.4078L66.357 12.6138C66.141 12.4098 65.883 12.2538 65.583 12.1458C65.295 12.0258 65.031 11.9598 64.791 11.9478C64.575 11.9358 64.383 11.9658 64.215 12.0378C64.047 12.0978 63.909 12.1878 63.801 12.3078C63.705 12.4278 63.657 12.5658 63.657 12.7218C63.645 12.9618 63.723 13.1538 63.891 13.2978C64.071 13.4418 64.299 13.5558 64.575 13.6398C64.851 13.7238 65.127 13.8138 65.403 13.9098C65.775 14.0178 66.105 14.1678 66.393 14.3598C66.681 14.5518 66.903 14.7858 67.059 15.0618C67.227 15.3258 67.311 15.6558 67.311 16.0518C67.311 16.5078 67.197 16.9398 66.969 17.3478C66.741 17.7438 66.399 18.0618 65.943 18.3018C65.487 18.5418 64.911 18.6618 64.215 18.6618ZM70.2603 7.53776H72.2943V10.8858H74.2743V12.4698H72.2943V18.4998H70.2603V12.4698H68.9643V10.8858H70.2603V7.53776ZM80.8811 18.6978C80.3531 18.6978 79.8431 18.5838 79.3511 18.3558C78.8591 18.1278 78.4631 17.8158 78.1631 17.4198L78.2711 16.8078V22.1538H76.2551V10.7418H78.0011L78.2711 12.5058L78.0911 11.9658C78.4631 11.5578 78.9131 11.2218 79.4411 10.9578C79.9811 10.6818 80.5871 10.5438 81.2591 10.5438C81.9791 10.5438 82.6211 10.7118 83.1851 11.0478C83.7491 11.3838 84.1931 11.8638 84.5171 12.4878C84.8531 13.0998 85.0211 13.8258 85.0211 14.6658C85.0211 15.5058 84.8411 16.2258 84.4811 16.8258C84.1211 17.4258 83.6291 17.8878 83.0051 18.2118C82.3811 18.5358 81.6731 18.6978 80.8811 18.6978ZM80.4851 17.0958C80.9291 17.0958 81.3371 16.9938 81.7091 16.7898C82.0931 16.5858 82.3991 16.3038 82.6271 15.9438C82.8551 15.5718 82.9691 15.1578 82.9691 14.7018C82.9691 14.2218 82.8611 13.8018 82.6451 13.4418C82.4411 13.0698 82.1591 12.7818 81.7991 12.5778C81.4511 12.3618 81.0611 12.2538 80.6291 12.2538C80.2331 12.2538 79.8791 12.3198 79.5671 12.4518C79.2551 12.5838 78.9911 12.7758 78.7751 13.0278C78.5591 13.2678 78.3911 13.5558 78.2711 13.8918V15.4218C78.3551 15.7458 78.4991 16.0338 78.7031 16.2858C78.9071 16.5378 79.1651 16.7358 79.4771 16.8798C79.7891 17.0238 80.1251 17.0958 80.4851 17.0958ZM87.1536 10.8858H89.1696V18.4998H87.1536V10.8858ZM87.0636 8.16776C87.0636 7.85576 87.1836 7.59776 87.4236 7.39376C87.6756 7.18976 87.9456 7.08776 88.2336 7.08776C88.5216 7.08776 88.7796 7.18976 89.0076 7.39376C89.2476 7.59776 89.3676 7.85576 89.3676 8.16776C89.3676 8.47976 89.2476 8.73776 89.0076 8.94176C88.7796 9.13376 88.5216 9.22976 88.2336 9.22976C87.9456 9.22976 87.6756 9.12776 87.4236 8.92376C87.1836 8.71976 87.0636 8.46776 87.0636 8.16776ZM91.9348 4.45976H93.9508V18.4998H91.9348V4.45976ZM96.0861 14.6118C96.0861 13.8438 96.2661 13.1538 96.6261 12.5418C96.9861 11.9178 97.4901 11.4318 98.1381 11.0838C98.7981 10.7238 99.5421 10.5438 100.37 10.5438C101.222 10.5438 101.96 10.7238 102.584 11.0838C103.22 11.4318 103.712 11.9178 104.06 12.5418C104.408 13.1538 104.582 13.8438 104.582 14.6118C104.582 15.3798 104.408 16.0758 104.06 16.6998C103.712 17.3118 103.22 17.7978 102.584 18.1578C101.96 18.5178 101.216 18.6978 100.352 18.6978C99.5361 18.6978 98.8041 18.5358 98.1561 18.2118C97.5081 17.8758 96.9981 17.4018 96.6261 16.7898C96.2661 16.1778 96.0861 15.4518 96.0861 14.6118ZM98.1201 14.6298C98.1201 15.0738 98.2161 15.4818 98.4081 15.8538C98.6001 16.2138 98.8641 16.5018 99.2001 16.7178C99.5361 16.9338 99.9081 17.0418 100.316 17.0418C100.76 17.0418 101.144 16.9338 101.468 16.7178C101.804 16.5018 102.062 16.2138 102.242 15.8538C102.434 15.4818 102.53 15.0738 102.53 14.6298C102.53 14.1738 102.434 13.7658 102.242 13.4058C102.062 13.0338 101.804 12.7398 101.468 12.5238C101.144 12.3078 100.76 12.1998 100.316 12.1998C99.8961 12.1998 99.5181 12.3138 99.1821 12.5418C98.8581 12.7578 98.6001 13.0458 98.4081 13.4058C98.2161 13.7658 98.1201 14.1738 98.1201 14.6298ZM107.42 7.53776H109.454V10.8858H111.434V12.4698H109.454V18.4998H107.42V12.4698H106.124V10.8858H107.42V7.53776Z" fill="white"/>
<defs>
<clipPath id="clip0_37_736">
<rect width="26" height="24" fill="white" transform="translate(0 -0.000244141)"/>
</clipPath>
</defs>
</svg>
