<svg width="31" height="19" viewBox="0 0 31 19" fill="none" xmlns="http://www.w3.org/2000/svg">
<path d="M24.3352 0.159994L30.0952 3.04C28.3352 4.96 26.9752 7.28 26.0152 10C25.0552 12.72 24.8152 15.4 25.2952 18.04L16.4152 18.88C15.9352 16.16 15.9752 13.64 16.5352 11.32C17.1752 8.92 18.1752 6.8 19.5352 4.96C20.9752 3.04 22.5752 1.44 24.3352 0.159994ZM9.45524 0.159994L15.2152 3.04C13.4552 4.96 12.0952 7.28 11.1352 10C10.1752 12.72 9.93523 15.4 10.4152 18.04L1.53523 18.88C1.05523 16.16 1.09523 13.64 1.65523 11.32C2.29523 8.92 3.29523 6.8 4.65523 4.96C6.09523 3.04 7.69523 1.44 9.45524 0.159994Z" fill="#84ED00"/>
</svg>
