<svg width="16" height="16" viewBox="0 0 16 16" fill="none" xmlns="http://www.w3.org/2000/svg">
<g clip-path="url(#clip0_20_904)">
<path d="M12.2188 7.65625C12.2188 7.13931 11.7982 6.71875 11.2812 6.71875H10.3438C9.82681 6.71875 9.40625 7.13931 9.40625 7.65625V10.9375H12.2188V7.65625Z" fill="#020000"/>
<path d="M1.90625 2.34375C1.90625 1.56844 2.53719 0.9375 3.3125 0.9375H4.25C4.88356 0.9375 5.4205 1.35888 5.59575 1.936C4.55756 2.17669 3.78125 3.10844 3.78125 4.21875V4.6875H8.46875V4.21875C8.46875 3.07288 7.64197 2.11709 6.55375 1.915C6.35166 0.826687 5.39575 0 4.25 0H3.3125C2.02031 0 0.96875 1.05125 0.96875 2.34375V6.71875H1.90625V2.34375Z" fill="#020000"/>
<path d="M13.1562 11.875H8.46875V10.4688H0.96875V11.875C0.96875 13.1016 1.64531 14.1729 2.64475 14.7359L2.04356 15.3371L2.70644 16L3.61253 15.0939C3.81881 15.1347 4.03194 15.1562 4.25 15.1562H11.75C11.9681 15.1562 12.1812 15.1347 12.3875 15.0939L13.2936 16L13.9565 15.3371L13.3553 14.7359C14.3547 14.1729 15.0312 13.1016 15.0312 11.875V10.4688H13.1562V11.875Z" fill="#020000"/>
<path d="M15.0625 7.65625H13.1562V9.53125H15.0625C15.5794 9.53125 16 9.11063 16 8.59375C16 8.07687 15.5794 7.65625 15.0625 7.65625Z" fill="#020000"/>
<path d="M8.46875 7.65625H0.9375C0.420625 7.65625 0 8.07687 0 8.59375C0 9.11063 0.420625 9.53125 0.9375 9.53125H8.46875V7.65625Z" fill="#020000"/>
</g>
<defs>
<clipPath id="clip0_20_904">
<rect width="16" height="16" fill="white"/>
</clipPath>
</defs>
</svg>
