<svg width="16" height="16" viewBox="0 0 16 16" fill="none" xmlns="http://www.w3.org/2000/svg">
<g clip-path="url(#clip0_20_913)">
<path d="M3.65212 3.13037H3.13037V4.17384H3.65212C3.93981 4.17384 4.17387 3.93978 4.17387 3.65209C4.17387 3.3644 3.93981 3.13037 3.65212 3.13037Z" fill="#020000"/>
<path d="M14.9565 13.8169C15.5625 13.6008 16 13.0271 16 12.3478V11.3043C16 10.5785 15.501 9.97206 14.8297 9.79581L14.124 7.679C13.9107 7.03888 13.3142 6.60866 12.6393 6.60866H8.57812C7.90322 6.60866 7.30672 7.03884 7.09341 7.67881L6.38769 9.79578C5.71638 9.97203 5.21741 10.5784 5.21741 11.3043V12.3478C5.21741 13.0271 5.65491 13.6008 6.26088 13.8168V14.4347C6.26088 14.6185 6.29859 14.7925 6.357 14.9565H4.17391V8.30616C5.94091 8.05163 7.30434 6.53188 7.30434 4.69566V3.65219C7.30434 1.63841 5.66609 0 3.65219 0C1.63828 0 0 1.63841 0 3.65219V4.69566C0 6.53188 1.36344 8.05163 3.13044 8.30616V14.9565H0.52175C0.233719 14.9565 0 15.1901 0 15.4782C0 15.7665 0.233719 16 0.52175 16H15.4783C15.7663 16 16 15.7665 16 15.4782C16 15.19 15.7663 14.9565 15.4783 14.9565H14.8604C14.9188 14.7925 14.9565 14.6186 14.9565 14.4347V13.8169ZM3.13044 5.21741V5.73916C3.13044 6.02738 2.89672 6.26091 2.60869 6.26091C2.32066 6.26091 2.08694 6.02738 2.08694 5.73916V4.69569V2.60869C2.08694 2.32047 2.32066 2.08694 2.60869 2.08694H3.65216C4.51525 2.08694 5.21737 2.78906 5.21737 3.65216C5.21737 4.51525 4.51525 5.21737 3.65216 5.21737H3.13044V5.21741ZM8.08325 8.00884C8.15459 7.79553 8.35331 7.65219 8.57819 7.65219H12.6393C12.8642 7.65219 13.0629 7.79553 13.1342 8.00903L13.7109 9.73916C11.8113 9.73916 9.45912 9.73916 7.50644 9.73916L8.08325 8.00884ZM6.78259 12.8696C6.49491 12.8696 6.26084 12.6355 6.26084 12.3478V11.3043C6.26084 11.0167 6.49491 10.7826 6.78259 10.7826H7.45016L8.14581 12.8696H6.78259ZM9.29516 14.9565C9.35359 14.7925 9.39128 14.6186 9.39128 14.4348V13.913H11.8261V14.4348C11.8261 14.6186 11.8638 14.7925 11.9222 14.9565H9.29516ZM14.4348 12.8696H13.0716L13.7673 10.7826H14.4348C14.7225 10.7826 14.9566 11.0167 14.9566 11.3043V12.3478C14.9565 12.6355 14.7225 12.8696 14.4348 12.8696Z" fill="#020000"/>
</g>
<defs>
<clipPath id="clip0_20_913">
<rect width="16" height="16" fill="white"/>
</clipPath>
</defs>
</svg>
