<svg width="114" height="24" viewBox="0 0 114 24" fill="none" xmlns="http://www.w3.org/2000/svg">
<g clip-path="url(#clip0_20_1708)">
<path d="M25.9975 9.17204H16.0709L13.0047 0L9.92904 9.17204L0.00244141 9.16289L8.04154 14.8371L4.96558 24L13.0047 18.3349L21.034 24L17.9678 14.8371L25.9975 9.17204Z" fill="#84ED00"/>
<path d="M18.658 16.9117L17.968 14.8372L13.0049 18.335L18.658 16.9117Z" fill="#D0FF71"/>
</g>
<path d="M34.864 5.396H43.63V7.412H40.246V18.5H38.158V7.412H34.864V5.396ZM46.6259 10.886L46.8059 13.046L46.7339 12.74C46.9379 12.284 47.2259 11.894 47.5979 11.57C47.9819 11.246 48.3719 10.994 48.7679 10.814C49.1759 10.634 49.5059 10.544 49.7579 10.544L49.6679 12.56C49.0919 12.512 48.5879 12.614 48.1559 12.866C47.7359 13.118 47.4059 13.46 47.1659 13.892C46.9259 14.312 46.8059 14.756 46.8059 15.224V18.5H44.8079V10.886H46.6259ZM54.2695 18.824C53.5735 18.824 52.9975 18.614 52.5415 18.194C52.0855 17.762 51.8455 17.21 51.8215 16.538V10.886H53.8375V15.818C53.8615 16.19 53.9695 16.496 54.1615 16.736C54.3535 16.976 54.6595 17.096 55.0795 17.096C55.4755 17.096 55.8235 16.976 56.1235 16.736C56.4355 16.484 56.6815 16.142 56.8615 15.71C57.0415 15.278 57.1315 14.792 57.1315 14.252V10.886H59.1475V18.5H57.3295L57.1675 16.826L57.2215 17.078C57.0655 17.414 56.8435 17.714 56.5555 17.978C56.2675 18.242 55.9255 18.446 55.5295 18.59C55.1455 18.746 54.7255 18.824 54.2695 18.824ZM64.1974 18.662C63.6214 18.662 63.0694 18.56 62.5414 18.356C62.0254 18.152 61.5934 17.852 61.2454 17.456L62.0914 16.322C62.4274 16.646 62.7574 16.886 63.0814 17.042C63.4174 17.186 63.7354 17.258 64.0354 17.258C64.2634 17.258 64.4674 17.234 64.6474 17.186C64.8394 17.126 64.9894 17.036 65.0974 16.916C65.2174 16.796 65.2774 16.634 65.2774 16.43C65.2774 16.19 65.1934 16.004 65.0254 15.872C64.8574 15.728 64.6414 15.614 64.3774 15.53C64.1134 15.434 63.8314 15.344 63.5314 15.26C62.8834 15.044 62.3974 14.744 62.0734 14.36C61.7494 13.964 61.5874 13.508 61.5874 12.992C61.5874 12.596 61.6894 12.218 61.8934 11.858C62.0974 11.486 62.4094 11.18 62.8294 10.94C63.2494 10.7 63.7774 10.58 64.4134 10.58C64.9894 10.58 65.4874 10.646 65.9074 10.778C66.3394 10.91 66.7414 11.12 67.1134 11.408L66.3394 12.632C66.1234 12.416 65.8654 12.254 65.5654 12.146C65.2774 12.026 65.0134 11.96 64.7734 11.948C64.5574 11.936 64.3654 11.966 64.1974 12.038C64.0294 12.098 63.8914 12.188 63.7834 12.308C63.6754 12.428 63.6214 12.566 63.6214 12.722C63.6214 12.962 63.7054 13.154 63.8734 13.298C64.0534 13.442 64.2814 13.556 64.5574 13.64C64.8334 13.724 65.1094 13.814 65.3854 13.91C65.7574 14.018 66.0814 14.168 66.3574 14.36C66.6454 14.552 66.8734 14.786 67.0414 15.062C67.2094 15.326 67.2934 15.656 67.2934 16.052C67.2934 16.508 67.1794 16.94 66.9514 17.348C66.7234 17.744 66.3814 18.062 65.9254 18.302C65.4694 18.542 64.8934 18.662 64.1974 18.662ZM70.2607 7.538H72.2767V10.886H74.2567V12.47H72.2767V18.5H70.2607V12.47H68.9467V10.886H70.2607V7.538ZM80.8636 18.698C80.3356 18.698 79.8256 18.584 79.3336 18.356C78.8416 18.128 78.4456 17.816 78.1456 17.42L78.2356 16.808V22.154H76.2376V10.742H77.9836L78.2536 12.506L78.0736 11.966C78.4456 11.558 78.8956 11.222 79.4236 10.958C79.9636 10.682 80.5696 10.544 81.2416 10.544C81.9616 10.544 82.6036 10.712 83.1676 11.048C83.7316 11.384 84.1756 11.864 84.4996 12.488C84.8236 13.1 84.9856 13.826 84.9856 14.666C84.9856 15.506 84.8056 16.226 84.4456 16.826C84.0976 17.426 83.6116 17.888 82.9876 18.212C82.3636 18.536 81.6556 18.698 80.8636 18.698ZM80.4676 17.096C80.9116 17.096 81.3196 16.994 81.6916 16.79C82.0756 16.586 82.3816 16.304 82.6096 15.944C82.8376 15.572 82.9516 15.158 82.9516 14.702C82.9516 14.222 82.8436 13.802 82.6276 13.442C82.4236 13.07 82.1416 12.782 81.7816 12.578C81.4336 12.362 81.0436 12.254 80.6116 12.254C80.2156 12.254 79.8616 12.32 79.5496 12.452C79.2376 12.584 78.9736 12.776 78.7576 13.028C78.5416 13.268 78.3736 13.556 78.2536 13.892V15.422C78.3376 15.746 78.4816 16.04 78.6856 16.304C78.8896 16.556 79.1476 16.754 79.4596 16.898C79.7716 17.03 80.1076 17.096 80.4676 17.096ZM87.136 10.886H89.152V18.5H87.136V10.886ZM87.046 8.15C87.046 7.838 87.166 7.58 87.406 7.376C87.658 7.172 87.928 7.07 88.216 7.07C88.504 7.07 88.762 7.172 88.99 7.376C89.218 7.58 89.332 7.838 89.332 8.15C89.332 8.462 89.218 8.72 88.99 8.924C88.762 9.116 88.504 9.212 88.216 9.212C87.928 9.212 87.658 9.11 87.406 8.906C87.166 8.702 87.046 8.45 87.046 8.15ZM91.9173 4.46H93.9333V18.5H91.9173V4.46ZM96.0685 14.612C96.0685 13.844 96.2485 13.154 96.6085 12.542C96.9805 11.918 97.4905 11.432 98.1385 11.084C98.7865 10.724 99.5245 10.544 100.353 10.544C101.205 10.544 101.943 10.724 102.567 11.084C103.203 11.432 103.689 11.918 104.025 12.542C104.373 13.154 104.547 13.844 104.547 14.612C104.547 15.38 104.373 16.076 104.025 16.7C103.689 17.312 103.203 17.798 102.567 18.158C101.931 18.518 101.187 18.698 100.335 18.698C99.5065 18.698 98.7685 18.536 98.1205 18.212C97.4845 17.876 96.9805 17.402 96.6085 16.79C96.2485 16.178 96.0685 15.452 96.0685 14.612ZM98.1025 14.63C98.1025 15.074 98.1985 15.482 98.3905 15.854C98.5825 16.214 98.8465 16.502 99.1825 16.718C99.5185 16.934 99.8905 17.042 100.299 17.042C100.743 17.042 101.127 16.934 101.451 16.718C101.787 16.502 102.045 16.214 102.225 15.854C102.417 15.482 102.513 15.074 102.513 14.63C102.513 14.174 102.417 13.766 102.225 13.406C102.045 13.034 101.787 12.74 101.451 12.524C101.127 12.308 100.743 12.2 100.299 12.2C99.8785 12.2 99.5005 12.314 99.1645 12.542C98.8405 12.758 98.5825 13.046 98.3905 13.406C98.1985 13.766 98.1025 14.174 98.1025 14.63ZM107.421 7.538H109.437V10.886H111.417V12.47H109.437V18.5H107.421V12.47H106.107V10.886H107.421V7.538Z" fill="#020000"/>
<defs>
<clipPath id="clip0_20_1708">
<rect width="26" height="24" fill="white"/>
</clipPath>
</defs>
</svg>
